<svg width="30" height="30" viewBox="0 0 30 30" fill="none" xmlns="http://www.w3.org/2000/svg">
<circle cx="15" cy="15" r="14.5" stroke="#DEEAFF"/>
<path fill-rule="evenodd" clip-rule="evenodd" d="M14.7976 8.20996H14.7814H14.7813C14.6835 8.20995 14.6126 8.20995 14.5493 8.21299C13.1986 8.2779 12.1182 9.35827 12.0533 10.709C12.0503 10.7723 12.0503 10.8432 12.0503 10.941V10.941L12.0503 10.9572C12.0503 11.3024 12.3301 11.5822 12.6753 11.5822C13.0205 11.5822 13.3003 11.3024 13.3003 10.9572C13.3003 10.8364 13.3005 10.7982 13.3019 10.769C13.3359 10.0615 13.9018 9.49555 14.6093 9.46155C14.6385 9.46015 14.6768 9.45996 14.7976 9.45996H17.9644C18.5348 9.45996 18.925 9.46045 19.2271 9.48514C19.522 9.50923 19.6775 9.55321 19.7887 9.60983C20.0474 9.74166 20.2577 9.952 20.3896 10.2107C20.4462 10.3218 20.4902 10.4774 20.5142 10.7723C20.5389 11.0744 20.5394 11.4646 20.5394 12.035V15.2018C20.5394 15.3226 20.5392 15.3609 20.5378 15.3901C20.5038 16.0976 19.9379 16.6635 19.2304 16.6975C19.2012 16.6989 19.1629 16.6991 19.0421 16.6991V17.9491L19.0583 17.9491H19.0584C19.1562 17.9491 19.2271 17.9491 19.2904 17.9461C20.6411 17.8812 21.7215 16.8008 21.7864 15.4501C21.7894 15.3868 21.7894 15.3158 21.7894 15.218V15.218L21.7894 12.009V12.0089C21.7894 11.471 21.7894 11.0296 21.7601 10.6705C21.7297 10.2983 21.6647 9.95994 21.5033 9.64324C21.2516 9.14931 20.8501 8.74774 20.3561 8.49607C20.0394 8.3347 19.7011 8.26969 19.3289 8.23929C18.9698 8.20995 18.5284 8.20996 17.9905 8.20996H17.9905H14.7976ZM14.1501 12.0508H12.0089C11.471 12.0508 11.0296 12.0508 10.6705 12.0801C10.2983 12.1105 9.95994 12.1755 9.64324 12.3369C9.14931 12.5886 8.74774 12.9901 8.49607 13.4841C8.3347 13.8008 8.26969 14.1391 8.23929 14.5113C8.20995 14.8704 8.20995 15.3118 8.20996 15.8497V15.8497V17.9909V17.991C8.20995 18.5289 8.20995 18.9703 8.23929 19.3294C8.26969 19.7016 8.3347 20.0399 8.49607 20.3566C8.74774 20.8506 9.14931 21.2521 9.64324 21.5038C9.95994 21.6652 10.2983 21.7302 10.6705 21.7606C11.0295 21.7899 11.471 21.7899 12.0089 21.7899H12.0089H14.1501H14.1502C14.6881 21.7899 15.1295 21.7899 15.4886 21.7606C15.8607 21.7302 16.1991 21.6652 16.5158 21.5038C17.0097 21.2521 17.4113 20.8506 17.663 20.3566C17.8243 20.0399 17.8894 19.7016 17.9198 19.3294C17.9491 18.9703 17.9491 18.5289 17.9491 17.991V17.991V15.8497V15.8497C17.9491 15.3118 17.9491 14.8704 17.9198 14.5113C17.8894 14.1391 17.8243 13.8008 17.663 13.4841C17.4113 12.9901 17.0097 12.5886 16.5158 12.3369C16.1991 12.1755 15.8607 12.1105 15.4886 12.0801C15.1295 12.0508 14.6881 12.0508 14.1501 12.0508ZM10.2107 13.4506C10.3218 13.394 10.4774 13.35 10.7723 13.326C11.0744 13.3013 11.4646 13.3008 12.035 13.3008H14.1241C14.6944 13.3008 15.0846 13.3013 15.3868 13.326C15.6816 13.35 15.8372 13.394 15.9483 13.4506C16.207 13.5825 16.4174 13.7928 16.5492 14.0515C16.6058 14.1627 16.6498 14.3182 16.6739 14.6131C16.6986 14.9152 16.6991 15.3054 16.6991 15.8758V17.9649C16.6991 18.5353 16.6986 18.9255 16.6739 19.2276C16.6498 19.5225 16.6058 19.678 16.5492 19.7891C16.4174 20.0479 16.207 20.2582 15.9483 20.39C15.8372 20.4467 15.6816 20.4906 15.3868 20.5147C15.0846 20.5394 14.6944 20.5399 14.1241 20.5399H12.035C11.4646 20.5399 11.0744 20.5394 10.7723 20.5147C10.4774 20.4906 10.3218 20.4467 10.2107 20.39C9.952 20.2582 9.74165 20.0479 9.60983 19.7891C9.55321 19.678 9.50922 19.5225 9.48513 19.2276C9.46045 18.9255 9.45996 18.5353 9.45996 17.9649V15.8758C9.45996 15.3054 9.46045 14.9152 9.48513 14.6131C9.50922 14.3182 9.55321 14.1627 9.60983 14.0515C9.74165 13.7928 9.952 13.5825 10.2107 13.4506Z" fill="#003C9C"/>
</svg>
