<svg width="26" height="26" viewBox="0 0 26 26" fill="none" xmlns="http://www.w3.org/2000/svg">
<circle cx="13" cy="13" r="12.5" fill="#EEF5FF" stroke="#DEEAFF"/>
<path fill-rule="evenodd" clip-rule="evenodd" d="M15.8327 8.38484C16.325 7.89255 17.1231 7.89255 17.6154 8.38486C18.1077 8.87715 18.1077 9.6753 17.6154 10.1676L17.1463 10.6367C16.2142 10.5252 15.475 9.78574 15.364 8.85347L15.8327 8.38484ZM14.349 9.86853L9.86947 14.348C9.34495 14.8725 9.13732 15.0833 8.97386 15.3176C8.82232 15.5349 8.69689 15.7693 8.60016 16.0159C8.49582 16.2819 8.43561 16.5716 8.29013 17.299L8.18736 17.8129L8.70126 17.7101C9.42862 17.5646 9.7183 17.5044 9.98431 17.4C10.2309 17.3033 10.4653 17.1779 10.6826 17.0263C10.9169 16.8629 11.1277 16.6553 11.6522 16.1308L16.1315 11.6515C15.3264 11.3178 14.6825 10.6737 14.349 9.86853ZM18.4993 7.50099C17.5189 6.52052 15.9292 6.5205 14.9488 7.50095L8.98559 13.4641L8.94347 13.5062L8.94346 13.5062C8.47421 13.9754 8.18289 14.2666 7.94859 14.6026C7.74092 14.9003 7.56903 15.2215 7.43647 15.5595C7.28691 15.9408 7.20616 16.3447 7.07609 16.9954L7.06441 17.0538L6.77777 18.487C6.73679 18.6919 6.80093 18.9037 6.94869 19.0515C7.09646 19.1993 7.3083 19.2634 7.51321 19.2224L9.00483 18.9241C9.65551 18.794 10.0595 18.7133 10.4407 18.5637C10.7787 18.4312 11.0999 18.2593 11.3976 18.0516C11.7336 17.8173 12.0248 17.526 12.494 17.0568L18.4993 11.0515C19.4797 10.071 19.4797 8.48144 18.4993 7.50099Z" fill="#003C9C"/>
</svg>
