<svg width="185" height="213" viewBox="0 0 185 213" fill="none" xmlns="http://www.w3.org/2000/svg">
<g opacity="0.7">
<rect width="182.413" height="66.9731" rx="3.84" fill="#D8DCE5"/>
<path d="M124.353 9.75928H156.265" stroke="#AFB7C7" stroke-width="4.8" stroke-linecap="round"/>
<path d="M165.058 9.75928H174.176" stroke="#AFB7C7" stroke-width="4.8" stroke-linecap="round"/>
<path d="M0.00849912 56.9756H182.387L182.387 62.9048C182.387 65.0255 180.668 66.7448 178.547 66.7448H3.84847C1.72769 66.7448 0.00845306 65.0255 0.00846519 62.9047L0.00849912 56.9756Z" fill="#AFB7C7"/>
<ellipse cx="31.7242" cy="28.6075" rx="16.7432" ry="16.7433" fill="#F7F8FA"/>
<rect x="57.2793" y="16.2705" width="27.3179" height="7.93103" rx="3.96551" fill="#F7F8FA"/>
<rect x="57.2793" y="34.7803" width="61.6856" height="7.93103" rx="3.96551" fill="#F7F8FA"/>
<rect y="73.292" width="182.413" height="66.9731" rx="3.84" fill="#F0F3F7"/>
<path d="M124.353 83.0508H156.265" stroke="#AFB7C7" stroke-width="4.8" stroke-linecap="round"/>
<path d="M165.058 83.0508H174.176" stroke="#AFB7C7" stroke-width="4.8" stroke-linecap="round"/>
<path d="M0.00849912 130.268H182.387L182.387 136.197C182.387 138.318 180.668 140.037 178.547 140.037H3.84847C1.72769 140.037 0.00845306 138.318 0.00846519 136.197L0.00849912 130.268Z" fill="#AFB7C7"/>
<ellipse cx="31.7242" cy="101.913" rx="16.7432" ry="16.7433" fill="#D8DCE5"/>
<rect x="57.2803" y="89.5752" width="27.3179" height="7.93103" rx="3.96551" fill="#D8DCE5"/>
<rect x="57.2803" y="108.085" width="61.6856" height="7.93103" rx="3.96551" fill="#D8DCE5"/>
<rect x="1.73828" y="146.027" width="182.413" height="66.9731" rx="3.84" fill="#D8DCE5"/>
<path d="M126.091 155.786H158.004" stroke="#AFB7C7" stroke-width="4.8" stroke-linecap="round"/>
<path d="M166.796 155.786H175.914" stroke="#AFB7C7" stroke-width="4.8" stroke-linecap="round"/>
<path d="M1.74727 203.002H184.126L184.126 208.932C184.126 211.052 182.406 212.772 180.286 212.772H5.58724C3.46646 212.772 1.74722 211.052 1.74723 208.932L1.74727 203.002Z" fill="#AFB7C7"/>
<ellipse cx="33.463" cy="174.634" rx="16.7432" ry="16.7433" fill="#F7F8FA"/>
<rect x="59.0181" y="162.297" width="27.3179" height="7.93103" rx="3.96551" fill="#F7F8FA"/>
<rect x="59.0181" y="180.807" width="61.6856" height="7.93103" rx="3.96551" fill="#F7F8FA"/>
</g>
</svg>
