<svg width="20" height="20" viewBox="0 0 20 20" fill="none" xmlns="http://www.w3.org/2000/svg">
<g clip-path="url(#clip0_8367_20231)">
<path d="M16.4 2C16.8243 2 17.2313 2.16857 17.5314 2.46863C17.8314 2.76869 18 3.17565 18 3.6V13.2C18 13.6243 17.8314 14.0313 17.5314 14.3314C17.2313 14.6314 16.8243 14.8 16.4 14.8H14V16.4C14 16.8243 13.8314 17.2313 13.5314 17.5314C13.2313 17.8314 12.8243 18 12.4 18H3.6C3.17565 18 2.76869 17.8314 2.46863 17.5314C2.16857 17.2313 2 16.8243 2 16.4V7.6C2 7.17565 2.16857 6.76869 2.46863 6.46863C2.76869 6.16857 3.17565 6 3.6 6H5.2V3.6C5.2 3.17565 5.36857 2.76869 5.66863 2.46863C5.96869 2.16857 6.37565 2 6.8 2H16.4ZM5.2 7.6H3.6V16.4H12.4V14.8H6.8C6.37565 14.8 5.96869 14.6314 5.66863 14.3314C5.36857 14.0313 5.2 13.6243 5.2 13.2V7.6ZM16.4 3.6H6.8V13.2H16.4V3.6ZM14.712 6.1864C14.862 6.33642 14.9462 6.53987 14.9462 6.752C14.9462 6.96413 14.862 7.16758 14.712 7.3176L11.3736 10.6552C11.2919 10.737 11.1949 10.8018 11.0881 10.8461C10.9813 10.8903 10.8668 10.9131 10.7512 10.9131C10.6356 10.9131 10.5211 10.8903 10.4143 10.8461C10.3075 10.8018 10.2105 10.737 10.1288 10.6552L8.4888 9.0152C8.33869 8.86519 8.25431 8.6617 8.25424 8.44948C8.25416 8.23727 8.33839 8.03371 8.4884 7.8836C8.63841 7.73349 8.8419 7.64911 9.05412 7.64904C9.26633 7.64896 9.46989 7.73319 9.62 7.8832L10.7512 9.0144L13.58 6.1864C13.73 6.03642 13.9335 5.95217 14.1456 5.95217C14.3577 5.95217 14.562 6.03642 14.712 6.1864Z" fill="#151617"/>
</g>
<defs>
<clipPath id="clip0_8367_20231">
<rect width="20" height="20" fill="white"/>
</clipPath>
</defs>
</svg>
