<svg width="20" height="20" viewBox="0 0 20 20" fill="none" xmlns="http://www.w3.org/2000/svg">
<path d="M6.54477 9.04516L9.70477 12.2052C9.74348 12.244 9.78946 12.2748 9.84008 12.2958C9.8907 12.3168 9.94497 12.3276 9.99977 12.3276C10.0546 12.3276 10.1088 12.3168 10.1595 12.2958C10.2101 12.2748 10.2561 12.244 10.2948 12.2052L13.4556 9.04516C13.514 8.98689 13.5538 8.91258 13.57 8.83166C13.5861 8.75073 13.5779 8.66684 13.5463 8.59061C13.5147 8.51438 13.4611 8.44925 13.3925 8.40348C13.3238 8.35771 13.2431 8.33335 13.1606 8.3335H6.83894C6.7565 8.33351 6.67591 8.35799 6.60738 8.40383C6.53885 8.44967 6.48546 8.5148 6.45396 8.591C6.42247 8.66719 6.41429 8.75101 6.43045 8.83186C6.44662 8.91271 6.4864 8.98694 6.54477 9.04516Z" fill="#151617"/>
<path fill-rule="evenodd" clip-rule="evenodd" d="M1.6665 3.12484C1.6665 2.31984 2.31984 1.6665 3.12484 1.6665H16.8748C17.6798 1.6665 18.3332 2.31984 18.3332 3.12484V16.8748C18.3332 17.2616 18.1795 17.6325 17.906 17.906C17.6325 18.1795 17.2616 18.3332 16.8748 18.3332H3.12484C2.73806 18.3332 2.36713 18.1795 2.09364 17.906C1.82015 17.6325 1.6665 17.2616 1.6665 16.8748V3.12484ZM3.12484 2.9165C3.06958 2.9165 3.01659 2.93845 2.97752 2.97752C2.93845 3.01659 2.9165 3.06958 2.9165 3.12484V16.8748C2.9165 16.9898 3.00984 17.0832 3.12484 17.0832H16.8748C16.9301 17.0832 16.9831 17.0612 17.0221 17.0221C17.0612 16.9831 17.0832 16.9301 17.0832 16.8748V3.12484C17.0832 3.06958 17.0612 3.01659 17.0221 2.97752C16.9831 2.93845 16.9301 2.9165 16.8748 2.9165H3.12484Z" fill="#151617"/>
</svg>
