<svg width="35" height="32" viewBox="0 0 35 32" fill="none" xmlns="http://www.w3.org/2000/svg">
<path fill-rule="evenodd" clip-rule="evenodd" d="M10.2997 2.16663H17.7001C19.0719 2.16662 20.1473 2.16662 21.0116 2.23724C21.8918 2.30915 22.6189 2.458 23.277 2.79334C24.359 3.34461 25.2386 4.22425 25.7899 5.30618C26.1252 5.96431 26.2741 6.69142 26.346 7.57156C26.4166 8.43591 26.4166 9.51134 26.4166 10.883V18.2835C26.4166 19.6552 26.4166 20.7307 26.346 21.595C26.2741 22.4752 26.1252 23.2023 25.7899 23.8604C25.2386 24.9423 24.359 25.822 23.277 26.3732C22.6189 26.7086 21.8918 26.8574 21.0116 26.9293C20.1473 27 19.0719 27 17.7002 27H10.2997C8.92797 27 7.85254 27 6.98819 26.9293C6.10805 26.8574 5.38094 26.7086 4.72281 26.3732C3.64087 25.822 2.76124 24.9423 2.20996 23.8604C1.87463 23.2023 1.72577 22.4752 1.65386 21.595C1.58324 20.7307 1.58325 19.6552 1.58325 18.2835V10.8831C1.58325 9.51135 1.58324 8.43591 1.65386 7.57156C1.72577 6.69142 1.87463 5.96431 2.20996 5.30618C2.76124 4.22425 3.64087 3.34461 4.72281 2.79334C5.38094 2.458 6.10805 2.30915 6.98819 2.23724C7.85254 2.16662 8.92797 2.16662 10.2997 2.16663ZM7.11034 3.73226C6.32296 3.79659 5.81522 3.92022 5.40379 4.12985C4.6041 4.53731 3.95394 5.18748 3.54647 5.98717C3.33684 6.39859 3.21321 6.90633 3.14888 7.69371C3.08384 8.48985 3.08325 9.50412 3.08325 10.9166V18.25C3.08325 19.6625 3.08384 20.6767 3.14888 21.4729C3.21321 22.2603 3.33684 22.768 3.54647 23.1794C3.95394 23.9791 4.6041 24.6293 5.40379 25.0367C5.81522 25.2464 6.32296 25.37 7.11034 25.4343C7.90647 25.4994 8.92075 25.5 10.3333 25.5H17.6666C19.0791 25.5 20.0934 25.4994 20.8895 25.4343C21.6769 25.37 22.1846 25.2464 22.596 25.0367C23.3957 24.6293 24.0459 23.9791 24.4534 23.1794C24.663 22.768 24.7866 22.2603 24.851 21.4729C24.916 20.6767 24.9166 19.6625 24.9166 18.25V10.9166C24.9166 9.50412 24.916 8.48985 24.851 7.69371C24.7866 6.90633 24.663 6.39859 24.4534 5.98717C24.0459 5.18748 23.3957 4.53731 22.596 4.12985C22.1846 3.92022 21.6769 3.79659 20.8895 3.73226C20.0934 3.66721 19.0791 3.66663 17.6666 3.66663H10.3333C8.92075 3.66663 7.90647 3.66721 7.11034 3.73226Z" fill="#003C9C"/>
<path fill-rule="evenodd" clip-rule="evenodd" d="M9.33325 1C9.74747 1 10.0833 1.33579 10.0833 1.75V5.25C10.0833 5.66421 9.74747 6 9.33325 6C8.91904 6 8.58325 5.66421 8.58325 5.25V1.75C8.58325 1.33579 8.91904 1 9.33325 1Z" fill="#003C9C"/>
<path fill-rule="evenodd" clip-rule="evenodd" d="M18.6672 1C19.0814 1 19.4172 1.33579 19.4172 1.75V5.25C19.4172 5.66421 19.0814 6 18.6672 6C18.253 6 17.9172 5.66421 17.9172 5.25V1.75C17.9172 1.33579 18.253 1 18.6672 1Z" fill="#003C9C"/>
<path fill-rule="evenodd" clip-rule="evenodd" d="M7.41724 9.91663C7.41724 9.50241 7.75302 9.16663 8.16724 9.16663H19.8339C20.2481 9.16663 20.5839 9.50241 20.5839 9.91663C20.5839 10.3308 20.2481 10.6666 19.8339 10.6666H8.16724C7.75302 10.6666 7.41724 10.3308 7.41724 9.91663Z" fill="#003C9C"/>
<path d="M10.5006 15.75C10.5006 16.3943 9.97824 16.9166 9.3339 16.9166C8.68957 16.9166 8.16724 16.3943 8.16724 15.75C8.16724 15.1056 8.68957 14.5833 9.3339 14.5833C9.97824 14.5833 10.5006 15.1056 10.5006 15.75Z" fill="#003C9C"/>
<path d="M10.5006 20.4167C10.5006 21.061 9.97824 21.5833 9.3339 21.5833C8.68957 21.5833 8.16724 21.061 8.16724 20.4167C8.16724 19.7723 8.68957 19.25 9.3339 19.25C9.97824 19.25 10.5006 19.7723 10.5006 20.4167Z" fill="#003C9C"/>
<path d="M15.1666 20.4167C15.1666 21.061 14.6442 21.5833 13.9999 21.5833C13.3556 21.5833 12.8333 21.061 12.8333 20.4167C12.8333 19.7723 13.3556 19.25 13.9999 19.25C14.6442 19.25 15.1666 19.7723 15.1666 20.4167Z" fill="#003C9C"/>
<path d="M19.8336 20.4166C19.8336 21.061 19.3112 21.5833 18.6669 21.5833C18.0226 21.5833 17.5002 21.061 17.5002 20.4166C17.5002 19.7723 18.0226 19.25 18.6669 19.25C19.3112 19.25 19.8336 19.7723 19.8336 20.4166Z" fill="#003C9C"/>
<path d="M15.1666 15.75C15.1666 16.3943 14.6442 16.9166 13.9999 16.9166C13.3556 16.9166 12.8333 16.3943 12.8333 15.75C12.8333 15.1056 13.3556 14.5833 13.9999 14.5833C14.6442 14.5833 15.1666 15.1056 15.1666 15.75Z" fill="#003C9C"/>
<path d="M19.8336 15.75C19.8336 16.3943 19.3112 16.9166 18.6669 16.9166C18.0226 16.9166 17.5002 16.3943 17.5002 15.75C17.5002 15.1056 18.0226 14.5833 18.6669 14.5833C19.3112 14.5833 19.8336 15.1056 19.8336 15.75Z" fill="#003C9C"/>
<rect x="16" y="13" width="19" height="19" rx="9.5" fill="#EEF5FF"/>
<path fill-rule="evenodd" clip-rule="evenodd" d="M29.6997 22.5L21.3001 16.034V28.9661L29.6997 22.5ZM22.5501 26.4263V18.5738L27.6505 22.5L22.5501 26.4263Z" fill="#003C9C"/>
</svg>
