<svg width="39" height="39" viewBox="0 0 39 39" fill="none" xmlns="http://www.w3.org/2000/svg">
<path d="M38.5 19.5C38.5 24.539 36.0053 28.1418 32.6806 31.6125C29.1571 35.2906 24.8256 38.5 19.5 38.5C14.9386 38.5 11.7927 36.524 8.44464 33.7405C4.18846 30.2021 0.5 25.3137 0.5 19.5C0.5 14.4659 4.00193 10.3688 7.4014 6.84726C10.9287 3.19332 14.2059 0.5 19.5 0.5C25.5973 0.5 30.238 3.37309 33.7294 7.88916C36.2548 11.1556 38.5 15.1794 38.5 19.5Z" fill="#EEF5FF" stroke="#002157"/>
<path fill-rule="evenodd" clip-rule="evenodd" d="M20.4084 12.1727C19.3952 11.3435 17.9379 11.3435 16.9248 12.1727C16.9005 12.1926 16.8747 12.2147 16.8414 12.2432L16.8414 12.2433L16.8413 12.2433L16.8413 12.2433L16.8352 12.2486C16.8034 12.2759 16.7946 12.2833 16.7872 12.2895C16.4279 12.5864 15.9333 12.6587 15.504 12.4771C15.4951 12.4733 15.4846 12.4687 15.4463 12.4517L13.6379 11.6479C13.4059 11.5448 13.1374 11.5661 12.9246 11.7044C12.7117 11.8428 12.5833 12.0794 12.5833 12.3333V19.2666V19.2996V19.2996V19.2996C12.5832 20.3918 12.5832 21.2573 12.6402 21.9549C12.6985 22.6683 12.8201 23.2719 13.101 23.8231C13.5564 24.7169 14.283 25.4435 15.1768 25.8989C15.728 26.1797 16.3316 26.3014 17.045 26.3596C17.7426 26.4166 18.608 26.4166 19.7001 26.4166H19.7002H19.7002H19.7002H19.7002H19.7002H19.7002H19.7002H19.7333H25.3333C26.4838 26.4166 27.4166 25.4839 27.4166 24.3333V21.6666L27.4166 21.5689C27.417 21.0451 27.4172 20.6404 27.3229 20.2882C27.0686 19.3392 26.3273 18.5979 25.3783 18.3437C25.1878 18.2926 24.9818 18.2692 24.7499 18.2586V12.3333C24.7499 12.0794 24.6215 11.8428 24.4086 11.7044C24.1957 11.5661 23.9273 11.5448 23.6953 11.6479L21.8869 12.4517C21.8486 12.4687 21.8381 12.4733 21.8292 12.4771C21.3999 12.6587 20.9053 12.5864 20.546 12.2895C20.5385 12.2833 20.5298 12.2759 20.498 12.2486L20.4918 12.2433L20.4918 12.2433L20.4917 12.2432L20.4917 12.2432C20.4585 12.2147 20.4327 12.1926 20.4084 12.1727ZM25.9166 24.3333C25.9166 24.6555 25.6554 24.9166 25.3333 24.9166C25.0111 24.9166 24.7499 24.6555 24.7499 24.3333V19.7604C24.8632 19.7668 24.9316 19.7769 24.9901 19.7926C25.4215 19.9081 25.7584 20.2451 25.874 20.6764C25.9101 20.8114 25.9166 20.9984 25.9166 21.6666V24.3333ZM16.6666 16.25C16.2524 16.25 15.9166 16.5857 15.9166 17C15.9166 17.4142 16.2524 17.75 16.6666 17.75H19.3333C19.7475 17.75 20.0833 17.4142 20.0833 17C20.0833 16.5857 19.7475 16.25 19.3333 16.25H16.6666ZM17.9166 19.6666C17.9166 19.2524 18.2524 18.9166 18.6666 18.9166L20.6666 18.9166C21.0808 18.9166 21.4166 19.2524 21.4166 19.6666C21.4166 20.0808 21.0808 20.4166 20.6666 20.4166H18.6666C18.2524 20.4166 17.9166 20.0808 17.9166 19.6666ZM18.6666 21.5833C18.2524 21.5833 17.9166 21.9191 17.9166 22.3333C17.9166 22.7475 18.2524 23.0833 18.6666 23.0833H20.6666C21.0808 23.0833 21.4166 22.7475 21.4166 22.3333C21.4166 21.9191 21.0808 21.5833 20.6666 21.5833H18.6666ZM17.3333 19.6666C17.3333 20.0348 17.0348 20.3333 16.6666 20.3333C16.2984 20.3333 15.9999 20.0348 15.9999 19.6666C15.9999 19.2984 16.2984 19 16.6666 19C17.0348 19 17.3333 19.2984 17.3333 19.6666ZM16.6666 23C17.0348 23 17.3333 22.7015 17.3333 22.3333C17.3333 21.9651 17.0348 21.6666 16.6666 21.6666C16.2984 21.6666 15.9999 21.9651 15.9999 22.3333C15.9999 22.7015 16.2984 23 16.6666 23Z" fill="#002157"/>
</svg>
