<svg width="38" height="39" viewBox="0 0 38 39" fill="none" xmlns="http://www.w3.org/2000/svg">
<path d="M31.8611 31.3459C34.9886 28.081 37.5 24.5248 37.5 19.5C37.5 15.1905 35.2697 11.265 32.8956 8.19418C29.5287 3.83928 24.9832 1 19 1C13.6993 1 10.4327 3.74202 7.14026 7.15274C4.02826 10.3765 0.5 14.4181 0.5 19.5C0.5 25.2872 4.16259 30.0443 8.18036 33.3845C11.3296 36.0027 14.4515 38 19 38C24.3212 38 28.5585 34.7934 31.8611 31.3459Z" fill="#8DCC8B" stroke="#4AA147"/>
<path d="M24.724 13.7239L16.3333 22.1146L13.276 19.0572C13.0245 18.8143 12.6877 18.68 12.3381 18.683C11.9885 18.686 11.6541 18.8263 11.4069 19.0735C11.1597 19.3207 11.0194 19.6551 11.0164 20.0047C11.0134 20.3543 11.1478 20.6911 11.3906 20.9426L15.3906 24.9426C15.6407 25.1925 15.9798 25.3329 16.3333 25.3329C16.6869 25.3329 17.0259 25.1925 17.276 24.9426L26.6093 15.6092C26.8522 15.3578 26.9866 15.021 26.9835 14.6714C26.9805 14.3218 26.8403 13.9873 26.5931 13.7401C26.3459 13.4929 26.0114 13.3527 25.6618 13.3497C25.3122 13.3466 24.9754 13.481 24.724 13.7239Z" fill="#EEF5FF"/>
</svg>
