<svg width="38" height="39" viewBox="0 0 38 39" fill="none" xmlns="http://www.w3.org/2000/svg">
<path d="M31.8611 31.3459C34.9886 28.081 37.5 24.5248 37.5 19.5C37.5 15.1905 35.2697 11.265 32.8956 8.19418C29.5287 3.83928 24.9832 1 19 1C13.6993 1 10.4327 3.74202 7.14026 7.15274C4.02826 10.3765 0.5 14.4181 0.5 19.5C0.5 25.2872 4.16259 30.0443 8.18036 33.3845C11.3296 36.0027 14.4515 38 19 38C24.3212 38 28.5585 34.7934 31.8611 31.3459Z" fill="#002157" stroke="#EEF5FF"/>
<g clip-path="url(#clip0_5317_47016)">
<path fill-rule="evenodd" clip-rule="evenodd" d="M9.91797 19.4998C9.91797 14.4833 13.9847 10.4165 19.0013 10.4165C24.0179 10.4165 28.0846 14.4833 28.0846 19.4998C28.0846 24.5164 24.0179 28.5832 19.0013 28.5832C13.9847 28.5832 9.91797 24.5164 9.91797 19.4998ZM19.75 16.1665C19.75 15.7523 19.4142 15.4165 19 15.4165C18.5858 15.4165 18.25 15.7523 18.25 16.1665V19.4998C18.25 19.7506 18.3753 19.9848 18.584 20.1239L21.084 21.7905C21.4286 22.0203 21.8943 21.9272 22.124 21.5825C22.3538 21.2379 22.2607 20.7722 21.916 20.5425L19.75 19.0984V16.1665Z" fill="#EEF5FF"/>
</g>
<defs>
<clipPath id="clip0_5317_47016">
<rect width="20" height="20" fill="white" transform="translate(9 9.5)"/>
</clipPath>
</defs>
</svg>
