<svg width="20" height="20" viewBox="0 0 20 20" fill="none" xmlns="http://www.w3.org/2000/svg">
<path d="M7.49984 16.6665H4.99984C4.11578 16.6665 3.26794 16.3153 2.64281 15.6902C2.01769 15.0651 1.6665 14.2172 1.6665 13.3332V5.83317C1.6665 4.94912 2.01769 4.10127 2.64281 3.47615C3.26794 2.85103 4.11578 2.49984 4.99984 2.49984H14.1665C15.0506 2.49984 15.8984 2.85103 16.5235 3.47615C17.1486 4.10127 17.4998 4.94912 17.4998 5.83317V8.33317M6.6665 1.6665V3.33317M12.4998 1.6665V3.33317M1.6665 6.6665H17.4998M15.4165 13.0357L14.1665 14.2857" stroke="#151617" stroke-width="1.25" stroke-linecap="round" stroke-linejoin="round"/>
<path d="M14.1667 18.3333C16.4679 18.3333 18.3333 16.4679 18.3333 14.1667C18.3333 11.8655 16.4679 10 14.1667 10C11.8655 10 10 11.8655 10 14.1667C10 16.4679 11.8655 18.3333 14.1667 18.3333Z" stroke="#151617" stroke-width="1.25" stroke-linecap="round" stroke-linejoin="round"/>
</svg>
