<svg width="16" height="16" viewBox="0 0 16 16" fill="none" xmlns="http://www.w3.org/2000/svg">
<path fill-rule="evenodd" clip-rule="evenodd" d="M2.08301 8.00016C2.08301 4.73248 4.73199 2.0835 7.99967 2.0835C11.2674 2.0835 13.9163 4.73248 13.9163 8.00016C13.9163 11.2678 11.2674 13.9168 7.99967 13.9168C4.73199 13.9168 2.08301 11.2678 2.08301 8.00016ZM7.99967 0.583496C3.90356 0.583496 0.583008 3.90405 0.583008 8.00016C0.583008 12.0963 3.90356 15.4168 7.99967 15.4168C12.0958 15.4168 15.4163 12.0963 15.4163 8.00016C15.4163 3.90405 12.0958 0.583496 7.99967 0.583496ZM5.33301 7.25C4.91879 7.25 4.58301 7.58579 4.58301 8C4.58301 8.41421 4.91879 8.75 5.33301 8.75H10.6663C11.0806 8.75 11.4163 8.41421 11.4163 8C11.4163 7.58579 11.0806 7.25 10.6663 7.25H5.33301Z" fill="#FF6060"/>
</svg>
