<svg width="36" height="37" viewBox="0 0 36 37" fill="none" xmlns="http://www.w3.org/2000/svg">
<path d="M35.5 18.5C35.5 23.1365 33.2056 26.4528 30.1389 29.6541C26.8885 33.0472 22.8998 36 18 36C13.803 36 10.9078 34.1829 7.81964 31.6155C3.89442 28.3522 0.5 23.8496 0.5 18.5C0.5 13.8706 3.72072 10.099 6.85974 6.84726C10.1142 3.4759 13.1297 1 18 1C23.6141 1 27.8873 3.6446 31.1044 7.80582C33.4338 10.8188 35.5 14.5246 35.5 18.5Z" fill="#EEF5FF" stroke="#002157"/>
<g clip-path="url(#clip0_5317_47038)">
<path fill-rule="evenodd" clip-rule="evenodd" d="M17.8336 11.4398C18.1685 11.1049 18.6228 10.9167 19.0964 10.9167C20.3785 10.9167 21.2429 12.2277 20.7379 13.4061L20.2138 14.6289C20.0202 15.0807 20.3516 15.5834 20.8433 15.5834H21.9843H21.9843H21.9843C22.4413 15.5834 22.8199 15.5834 23.1284 15.6033C23.4467 15.6239 23.7483 15.6681 24.0369 15.7853C24.8615 16.1199 25.4732 16.8329 25.6785 17.6988C25.7504 18.0019 25.7483 18.3066 25.7202 18.6244C25.693 18.9323 25.6354 19.3065 25.5659 19.7581L25.5659 19.7582L25.1552 22.4281C25.0847 22.8863 25.0255 23.2713 24.9524 23.5852C24.8758 23.9146 24.7728 24.2195 24.588 24.5028C24.3019 24.9412 23.8966 25.2889 23.4198 25.5049C23.1118 25.6445 22.7947 25.7 22.4575 25.7256C22.1361 25.7501 21.7466 25.7501 21.283 25.7501H21.283H17.685C17.0652 25.7501 16.5652 25.7501 16.1576 25.7246C15.7386 25.6983 15.3673 25.6431 15.0127 25.5096C14.0023 25.1292 13.2049 24.3318 12.8245 23.3213C12.691 22.9668 12.6357 22.5954 12.6095 22.1765C12.584 21.7689 12.584 21.2689 12.584 20.6491V20.6247L12.584 20.5461C12.5839 19.5002 12.5839 18.8767 12.6931 18.2767C12.8651 17.3316 13.2369 16.4341 13.7835 15.6442C14.1306 15.1427 14.5715 14.7018 15.311 13.9624L15.311 13.9624L15.3667 13.9067L17.8336 11.4398ZM12.084 16.3333C12.084 15.919 11.7482 15.5833 11.334 15.5833C10.9198 15.5833 10.584 15.919 10.584 16.3333V24.3333C10.584 24.7475 10.9198 25.0833 11.334 25.0833C11.7482 25.0833 12.084 24.7475 12.084 24.3333L12.084 16.3333Z" fill="#002157"/>
</g>
<defs>
<clipPath id="clip0_5317_47038">
<rect width="16" height="16" fill="white" transform="translate(10 10)"/>
</clipPath>
</defs>
</svg>
