<svg width="26" height="26" viewBox="0 0 26 26" fill="none" xmlns="http://www.w3.org/2000/svg">
<circle cx="13" cy="13" r="12.5" fill="#EEF5FF" stroke="#DEEAFF"/>
<path fill-rule="evenodd" clip-rule="evenodd" d="M12.73 5.70864L12.6299 5.70857C12.1074 5.70799 11.6814 5.70751 11.3036 5.85609C10.9725 5.9863 10.6794 6.19753 10.4512 6.47043C10.1908 6.78183 10.0566 7.18612 9.89185 7.68205L9.88306 7.7085H6.3335C5.98832 7.7085 5.7085 7.98832 5.7085 8.3335C5.7085 8.67867 5.98832 8.9585 6.3335 8.9585H7.07751L7.53387 16.7166C7.56379 17.2253 7.5884 17.6438 7.63572 17.9839C7.68487 18.3371 7.76431 18.6567 7.93139 18.9537C8.19283 19.4185 8.58964 19.7927 9.06899 20.0264C9.37535 20.1757 9.69901 20.2363 10.0545 20.2646C10.3968 20.2918 10.816 20.2918 11.3256 20.2918H14.6747C15.1843 20.2918 15.6035 20.2918 15.9458 20.2646C16.3013 20.2363 16.625 20.1757 16.9313 20.0264C17.4107 19.7927 17.8075 19.4185 18.0689 18.9537C18.236 18.6567 18.3155 18.3371 18.3646 17.9839C18.4119 17.6438 18.4365 17.2253 18.4665 16.7166L18.9228 8.9585H19.6668C20.012 8.9585 20.2918 8.67867 20.2918 8.3335C20.2918 7.98832 20.012 7.7085 19.6668 7.7085H16.1174L16.1086 7.68205C15.9439 7.18612 15.8096 6.78183 15.5492 6.47043C15.321 6.19753 15.0279 5.9863 14.6968 5.85609C14.3191 5.70751 13.8931 5.70799 13.3705 5.70857L13.2704 5.70864H12.73ZM15.647 8.9585C15.6602 8.95891 15.6733 8.95892 15.6865 8.9585H17.6707L17.2201 16.618C17.1883 17.1581 17.1662 17.5266 17.1265 17.8116C17.0879 18.089 17.0386 18.2357 16.9795 18.3409C16.8425 18.5844 16.6347 18.7804 16.3836 18.9028C16.275 18.9557 16.1258 18.9963 15.8465 19.0185C15.5597 19.0414 15.1905 19.0418 14.6495 19.0418H11.3508C10.8098 19.0418 10.4406 19.0414 10.1538 19.0185C9.87456 18.9963 9.72528 18.9557 9.61676 18.9028C9.36567 18.7804 9.15782 18.5844 9.02088 18.3409C8.96169 18.2357 8.9124 18.089 8.8738 17.8116C8.83415 17.5266 8.81201 17.1581 8.78024 16.618L8.32967 8.9585H10.3139C10.3271 8.95892 10.3403 8.95891 10.3534 8.9585H15.647ZM14.7957 7.7085C14.7002 7.44195 14.6514 7.34537 14.5903 7.27232C14.4963 7.15995 14.3756 7.07297 14.2393 7.01935C14.1117 6.96914 13.9458 6.95864 13.2704 6.95864H12.73C12.0547 6.95864 11.8888 6.96914 11.7611 7.01935C11.6248 7.07297 11.5041 7.15995 11.4101 7.27232C11.349 7.34537 11.3003 7.44195 11.2047 7.7085H14.7957ZM12.2917 11.6655C12.2917 11.3203 12.0119 11.0405 11.6667 11.0405C11.3216 11.0405 11.0417 11.3203 11.0417 11.6655V16.3322C11.0417 16.6774 11.3216 16.9572 11.6667 16.9572C12.0119 16.9572 12.2917 16.6774 12.2917 16.3322V11.6655ZM14.3335 11.0405C14.6787 11.0405 14.9585 11.3203 14.9585 11.6655V14.3322C14.9585 14.6774 14.6787 14.9572 14.3335 14.9572C13.9883 14.9572 13.7085 14.6774 13.7085 14.3322V11.6655C13.7085 11.3203 13.9883 11.0405 14.3335 11.0405Z" fill="#FF6060"/>
</svg>
